<svg xmlns="http://www.w3.org/2000/svg" viewBox="0 0 32 32">
  <circle cx="16" cy="16" r="15" fill="#050505" stroke="#D9A441" stroke-width="0.8" opacity="0.8"/>
  <path d="M9 23V9H15C17.76 9 20 11.24 20 14C20 15.98 18.9 17.7 17.27 18.59L20.5 23H17.5L14.5 19H11V23H9Z" fill="#D9A441" opacity="0.95"/>
  <path d="M11 11.5V16.5H15C16.38 16.5 17.5 15.38 17.5 14C17.5 12.62 16.38 11.5 15 11.5H11Z" fill="#050505"/>
  <path d="M22 8.5C22 8.5 20.8 7.2 19.2 8" stroke="#D9A441" stroke-width="0.8" stroke-linecap="round" opacity="0.7"/>
  <path d="M22 8.5C22 8.5 23.2 6.5 24.8 7.5" stroke="#D9A441" stroke-width="0.8" stroke-linecap="round" opacity="0.6"/>
  <path d="M22 8.5V11" stroke="#D9A441" stroke-width="0.8" stroke-linecap="round" opacity="0.8"/>
</svg>
